<mxfile host="Electron" modified="2025-01-04T11:37:48.080Z" agent="Mozilla/5.0 (X11; Linux x86_64) AppleWebKit/537.36 (KHTML, like Gecko) draw.io/21.2.1 Chrome/112.0.5615.87 Electron/24.1.2 Safari/537.36" etag="iQKZ19d5lU7Q_rqsTfXe" version="21.2.1" type="device">
  <diagram name="Seite-1" id="eCgq98eG9K1OQy5Iakyk">
    <mxGraphModel dx="1050" dy="667" grid="1" gridSize="10" guides="1" tooltips="1" connect="1" arrows="1" fold="1" page="1" pageScale="1" pageWidth="827" pageHeight="1169" math="0" shadow="0">
      <root>
        <mxCell id="0" />
        <mxCell id="1" parent="0" />
        <mxCell id="DtF1miCVM-Mhuby2W57F-3" value="" style="edgeStyle=orthogonalEdgeStyle;rounded=0;orthogonalLoop=1;jettySize=auto;html=1;" edge="1" parent="1" source="DtF1miCVM-Mhuby2W57F-1" target="DtF1miCVM-Mhuby2W57F-2">
          <mxGeometry relative="1" as="geometry" />
        </mxCell>
        <mxCell id="DtF1miCVM-Mhuby2W57F-1" value="Off" style="rounded=0;whiteSpace=wrap;html=1;" vertex="1" parent="1">
          <mxGeometry x="240" y="200" width="80" height="40" as="geometry" />
        </mxCell>
        <mxCell id="DtF1miCVM-Mhuby2W57F-7" value="" style="edgeStyle=orthogonalEdgeStyle;rounded=0;orthogonalLoop=1;jettySize=auto;html=1;" edge="1" parent="1" source="DtF1miCVM-Mhuby2W57F-2" target="DtF1miCVM-Mhuby2W57F-6">
          <mxGeometry relative="1" as="geometry" />
        </mxCell>
        <mxCell id="DtF1miCVM-Mhuby2W57F-2" value="Check if On" style="rounded=0;whiteSpace=wrap;html=1;" vertex="1" parent="1">
          <mxGeometry x="240" y="280" width="80" height="40" as="geometry" />
        </mxCell>
        <mxCell id="DtF1miCVM-Mhuby2W57F-9" value="" style="edgeStyle=orthogonalEdgeStyle;rounded=0;orthogonalLoop=1;jettySize=auto;html=1;" edge="1" parent="1" source="DtF1miCVM-Mhuby2W57F-6" target="DtF1miCVM-Mhuby2W57F-8">
          <mxGeometry relative="1" as="geometry" />
        </mxCell>
        <mxCell id="DtF1miCVM-Mhuby2W57F-6" value="On" style="rounded=0;whiteSpace=wrap;html=1;" vertex="1" parent="1">
          <mxGeometry x="240" y="360" width="80" height="40" as="geometry" />
        </mxCell>
        <mxCell id="DtF1miCVM-Mhuby2W57F-10" style="edgeStyle=orthogonalEdgeStyle;rounded=0;orthogonalLoop=1;jettySize=auto;html=1;exitX=0.5;exitY=1;exitDx=0;exitDy=0;entryX=0.5;entryY=0;entryDx=0;entryDy=0;" edge="1" parent="1" source="DtF1miCVM-Mhuby2W57F-8" target="DtF1miCVM-Mhuby2W57F-1">
          <mxGeometry relative="1" as="geometry">
            <Array as="points">
              <mxPoint x="280" y="500" />
              <mxPoint x="220" y="500" />
              <mxPoint x="220" y="180" />
              <mxPoint x="280" y="180" />
            </Array>
          </mxGeometry>
        </mxCell>
        <mxCell id="DtF1miCVM-Mhuby2W57F-8" value="Pause" style="rounded=0;whiteSpace=wrap;html=1;" vertex="1" parent="1">
          <mxGeometry x="240" y="440" width="80" height="40" as="geometry" />
        </mxCell>
      </root>
    </mxGraphModel>
  </diagram>
</mxfile>
